rotated_Sprint_07200001_forces_filt5Hz.mot
version=1
nRows=28
nColumns=19
inDegrees=yes
endheader
time	R_ground_force_vx	R_ground_force_vy	R_ground_force_vz	R_ground_force_px	R_ground_force_py	R_ground_force_pz	R_ground_torque_x	R_ground_torque_y	R_ground_torque_z	L_ground_force_vx	L_ground_force_vy	L_ground_force_vz	L_ground_force_px	L_ground_force_py	L_ground_force_pz	L_ground_torque_x	L_ground_torque_y	L_ground_torque_z	
0.794500	  0.000000	  0.000000	  0.000000	  1.214550	  0.000000	 -0.198673	  0.000000	  0.000000	  0.000000	  0.000000	  0.000000	  0.000000	  0.166049	  0.000000	 -0.318142	  0.000000	  0.000000	  0.000000
0.795000	  0.000000	  0.000000	  0.000000	  1.215667	  0.000000	 -0.197905	  0.000000	  0.000000	  0.000000	  0.000000	  0.000000	  0.000000	  0.165639	  0.000000	 -0.320876	  0.000000	  0.000000	  0.000000
0.795500	  0.000000	  0.000000	  0.000000	  1.216481	  0.000000	 -0.197221	  0.000000	  0.000000	  0.000000	  0.000000	  0.000000	  0.000000	  0.165518	  0.000000	 -0.323267	  0.000000	  0.000000	  0.000000
0.796000	  0.000000	  0.000000	  0.000000	  1.217296	  0.000000	 -0.196537	  0.000000	  0.000000	  0.000000	  0.000000	  0.000000	  0.000000	  0.165397	  0.000000	 -0.325659	  0.000000	  0.000000	  0.000000
0.796500	  0.000000	  0.000000	  0.000000	  1.218110	  0.000000	 -0.195853	  0.000000	  0.000000	  0.000000	  0.000000	  0.000000	  0.000000	  0.165276	  0.000000	 -0.328050	  0.000000	  0.000000	  0.000000
0.797000	  0.000000	  0.000000	  0.000000	  1.218924	  0.000000	 -0.195169	  0.000000	  0.000000	  0.000000	  0.000000	  0.000000	  0.000000	  0.165155	  0.000000	 -0.330441	  0.000000	  0.000000	  0.000000
0.797500	  0.000000	  0.000000	  0.000000	  1.219739	  0.000000	 -0.194486	  0.000000	  0.000000	  0.000000	  0.000000	  0.000000	  0.000000	  0.165035	  0.000000	 -0.332832	  0.000000	  0.000000	  0.000000
0.798000	  0.000000	  0.000000	  0.000000	  1.220553	  0.000000	 -0.193802	  0.000000	  0.000000	  0.000000	  0.000000	  0.000000	  0.000000	  0.164914	  0.000000	 -0.335224	  0.000000	  0.000000	  0.000000
0.798500	  0.000000	  0.000000	  0.000000	  1.221367	  0.000000	 -0.193118	  0.000000	  0.000000	  0.000000	  0.000000	  0.000000	  0.000000	  0.164793	  0.000000	 -0.337615	  0.000000	  0.000000	  0.000000
0.799000	  0.000000	  0.000000	  0.000000	  1.222181	  0.000000	 -0.192434	  0.000000	  0.000000	  0.000000	  0.000000	  0.000000	  0.000000	  0.164672	  0.000000	 -0.340006	  0.000000	  0.000000	  0.000000
0.799500	  0.000000	  0.000000	  0.000000	  1.222996	  0.000000	 -0.191750	  0.000000	  0.000000	  0.000000	  0.000000	  0.000000	  0.000000	  0.164551	  0.000000	 -0.342398	  0.000000	  0.000000	  0.000000
0.800000	  0.000000	  0.000000	  0.000000	  1.223810	  0.000000	 -0.191066	  0.000000	  0.000000	  0.000000	  0.000000	  0.000000	  0.000000	  0.164430	  0.000000	 -0.344789	  0.000000	  0.000000	  0.000000
0.800500	  0.000000	  0.000000	  0.000000	  1.224287	  0.000000	 -0.190464	  0.000000	  0.000000	  0.000000	  0.000000	  0.000000	  0.000000	  0.164595	  0.000000	 -0.347214	  0.000000	  0.000000	  0.000000
0.801000	  0.000000	  0.000000	  0.000000	  1.224764	  0.000000	 -0.189862	  0.000000	  0.000000	  0.000000	  0.000000	  0.000000	  0.000000	  0.164759	  0.000000	 -0.349639	  0.000000	  0.000000	  0.000000
0.801500	  0.000000	  0.000000	  0.000000	  1.225241	  0.000000	 -0.189261	  0.000000	  0.000000	  0.000000	  0.000000	  0.000000	  0.000000	  0.164924	  0.000000	 -0.352063	  0.000000	  0.000000	  0.000000
0.802000	  0.000000	  0.000000	  0.000000	  1.225718	  0.000000	 -0.188659	  0.000000	  0.000000	  0.000000	  0.000000	  0.000000	  0.000000	  0.165089	  0.000000	 -0.354488	  0.000000	  0.000000	  0.000000
0.802500	  0.000000	  0.000000	  0.000000	  1.226195	  0.000000	 -0.188057	  0.000000	  0.000000	  0.000000	  0.000000	  0.000000	  0.000000	  0.165253	  0.000000	 -0.356913	  0.000000	  0.000000	  0.000000
0.803000	  0.000000	  0.000000	  0.000000	  1.226671	  0.000000	 -0.187455	  0.000000	  0.000000	  0.000000	  0.000000	  0.000000	  0.000000	  0.165418	  0.000000	 -0.359338	  0.000000	  0.000000	  0.000000
0.803500	  0.000000	  0.000000	  0.000000	  1.227148	  0.000000	 -0.186853	  0.000000	  0.000000	  0.000000	  0.000000	  0.000000	  0.000000	  0.165583	  0.000000	 -0.361763	  0.000000	  0.000000	  0.000000
0.804000	  0.000000	  0.000000	  0.000000	  1.227625	  0.000000	 -0.186252	  0.000000	  0.000000	  0.000000	  0.000000	  0.000000	  0.000000	  0.165748	  0.000000	 -0.364187	  0.000000	  0.000000	  0.000000
0.804500	  0.000000	  0.000000	  0.000000	  1.228102	  0.000000	 -0.185650	  0.000000	  0.000000	  0.000000	  0.000000	  0.000000	  0.000000	  0.165912	  0.000000	 -0.366612	  0.000000	  0.000000	  0.000000
0.805000	  0.000000	  0.000000	  0.000000	  1.228579	  0.000000	 -0.185048	  0.000000	  0.000000	  0.000000	  0.000000	  0.000000	  0.000000	  0.166077	  0.000000	 -0.369037	  0.000000	  0.000000	  0.000000
0.805500	  0.000000	  0.000000	  0.000000	  1.228689	  0.000000	 -0.184534	  0.000000	  0.000000	  0.000000	  0.000000	  0.000000	  0.000000	  0.166473	  0.000000	 -0.371329	  0.000000	  0.000000	  0.000000
0.806000	  0.000000	  0.000000	  0.000000	  1.228799	  0.000000	 -0.184019	  0.000000	  0.000000	  0.000000	  0.000000	  0.000000	  0.000000	  0.166869	  0.000000	 -0.373620	  0.000000	  0.000000	  0.000000
0.806500	  0.000000	  0.000000	  0.000000	  1.228909	  0.000000	 -0.183505	  0.000000	  0.000000	  0.000000	  0.000000	  0.000000	  0.000000	  0.167265	  0.000000	 -0.375912	  0.000000	  0.000000	  0.000000
0.807000	  0.000000	  0.000000	  0.000000	  1.229019	  0.000000	 -0.182990	  0.000000	  0.000000	  0.000000	  0.000000	  0.000000	  0.000000	  0.167661	  0.000000	 -0.378203	  0.000000	  0.000000	  0.000000
0.807500	  0.000000	  0.000000	  0.000000	  1.229129	  0.000000	 -0.182476	  0.000000	  0.000000	  0.000000	  0.000000	  0.000000	  0.000000	  0.168057	  0.000000	 -0.380495	  0.000000	  0.000000	  0.000000
0.808000	  0.000000	  0.000000	  0.000000	  1.229240	  0.000000	 -0.181961	  0.000000	  0.000000	  0.000000	  0.000000	  0.000000	  0.000000	  0.168453	  0.000000	 -0.382787	  0.000000	  0.000000	  0.000000
